<svg width="110" height="30" fill="none" xmlns="http://www.w3.org/2000/svg"><path d="M107.311 8.092l-5.922 13.368-5.922-13.4c-.154-.398-.439-.597-.855-.597-.263 0-.51.094-.74.282-.23.188-.346.415-.346.68a.88.88 0 00.099.398l6.744 14.793-2.336 5.142a.89.89 0 00-.098.398.74.74 0 00.28.597c.186.154.4.232.64.232.395 0 .68-.188.856-.563l9.31-20.598a.952.952 0 00.099-.43.824.824 0 00-.295-.631.968.968 0 00-.658-.266c-.396 0-.681.198-.856.595zM84.148 22.355c-1.69 0-2.983-.565-3.882-1.692-.9-1.127-1.349-2.753-1.349-4.875 0-2.078.461-3.699 1.382-4.859.92-1.161 2.215-1.741 3.882-1.741 1.645 0 2.933.58 3.865 1.741.933 1.16 1.398 2.78 1.398 4.859 0 2.123-.46 3.748-1.382 4.875-.92 1.127-2.225 1.692-3.914 1.692zm.033 1.791c1.448 0 2.73-.343 3.85-1.028 1.119-.686 1.979-1.658 2.582-2.919.603-1.26.904-2.731.904-4.411 0-1.68-.3-3.152-.903-4.412-.604-1.26-1.464-2.233-2.584-2.919-1.118-.686-2.401-1.028-3.85-1.028-1.47 0-2.758.343-3.865 1.028-1.108.685-1.969 1.659-2.583 2.92-.614 1.26-.921 2.73-.921 4.41 0 1.68.307 3.151.921 4.412.614 1.26 1.475 2.233 2.583 2.92 1.107.684 2.397 1.027 3.866 1.027zM71.549 3.747c.437 0 .795-.133 1.069-.397.273-.265.41-.608.41-1.028 0-.442-.137-.796-.41-1.06-.274-.266-.632-.4-1.07-.4-.44 0-.795.134-1.07.4-.273.264-.41.618-.41 1.06 0 .42.137.763.41 1.027.274.266.63.398 1.07.398zM66.744 29.95l.889-.066c1.688-.111 2.928-.613 3.718-1.51.789-.895 1.184-2.283 1.184-4.162V8.524c0-.331-.088-.585-.263-.762-.176-.177-.416-.266-.724-.266-.307 0-.554.09-.74.266-.186.177-.28.43-.28.762v15.789c0 1.37-.263 2.349-.789 2.934s-1.338.912-2.435.979l-.889.066c-.635.066-.954.353-.954.862 0 .597.428.863 1.283.796zm-2.5-5.87a.986.986 0 00.708-.265c.186-.177.28-.431.28-.763V1.393c0-.331-.094-.585-.28-.763a.992.992 0 00-.708-.265c-.307 0-.553.09-.74.265-.186.178-.28.432-.28.763v21.66c0 .33.094.585.28.762.187.176.433.265.74.265zM51.15 22.39c-1.031 0-1.897-.304-2.6-.913-.702-.607-1.052-1.376-1.052-2.305 0-.817.23-1.443.69-1.874.46-.431 1.25-.734 2.37-.912 1.118-.177 2.73-.265 4.837-.265h.625v1.095c0 1.503-.456 2.742-1.366 3.715-.91.972-2.078 1.459-3.504 1.459zm1.086-14.96c-.921 0-1.853.122-2.796.365-.943.243-1.799.586-2.566 1.028-.768.465-1.153.94-1.153 1.426 0 .243.071.447.215.614a.683.683 0 00.543.249c.197 0 .433-.094.707-.282l.51-.349c1.47-.862 3.015-1.293 4.639-1.293 1.272 0 2.205.337 2.796 1.011.591.676.889 1.742.889 3.2v1.228h-.691c-2.567 0-4.562.145-5.988.432-1.426.287-2.446.768-3.06 1.443-.614.674-.91 1.619-.889 2.835 0 .908.253 1.725.757 2.454.504.73 1.179 1.306 2.023 1.725.845.42 1.782.63 2.814.63 1.14 0 2.148-.27 3.026-.813.877-.541 1.547-1.31 2.007-2.305v1.99c0 .309.087.559.263.746.175.188.416.282.724.282.307 0 .548-.094.723-.282.176-.188.264-.437.264-.746v-9.453c0-2.056-.477-3.593-1.431-4.61-.953-1.015-2.396-1.525-4.326-1.525zM35.063 9.088c1.512 0 2.686.48 3.52 1.442.833.962 1.271 2.327 1.315 4.096H29.733c.175-1.746.723-3.106 1.645-4.08.92-.972 2.148-1.458 3.684-1.458zm5.79 11.377c-.197 0-.537.166-1.02.497-.724.42-1.403.758-2.039 1.011-.636.255-1.426.382-2.369.382-1.798 0-3.19-.532-4.177-1.593-.988-1.061-1.513-2.608-1.579-4.643h10.956c.395 0 .68-.094.856-.282.175-.188.262-.48.262-.878 0-2.344-.597-4.184-1.792-5.523-1.196-1.337-2.824-2.007-4.885-2.007-1.47 0-2.77.348-3.9 1.045s-2.006 1.68-2.632 2.952c-.625 1.272-.936 2.736-.936 4.395 0 2.586.7 4.622 2.106 6.103 1.403 1.482 3.323 2.222 5.757 2.222 1.755 0 3.423-.475 5.001-1.427.745-.464 1.12-.939 1.12-1.426a.865.865 0 00-.215-.58.667.667 0 00-.514-.248zM18.119 7.429c-1.228 0-2.314.282-3.256.846a5.21 5.21 0 00-2.105 2.339c-.747-2.124-2.38-3.185-4.903-3.185-1.14 0-2.144.26-3.01.78-.868.52-1.53 1.277-1.991 2.273v-1.99c0-.31-.083-.553-.246-.73-.165-.177-.4-.266-.707-.266-.308 0-.555.09-.74.266-.187.177-.28.43-.28.762v14.528c0 .309.092.56.28.746.186.188.432.282.74.282.307 0 .547-.094.723-.282.176-.188.264-.437.264-.746v-8.458c0-1.635.422-2.94 1.267-3.914.843-.972 1.978-1.46 3.405-1.46 1.25 0 2.16.36 2.73 1.079.57.718.856 1.886.856 3.498v9.255c0 .309.092.56.28.746.187.188.433.282.74.282s.547-.094.724-.282c.175-.188.262-.437.262-.746v-8.458c0-1.635.423-2.94 1.267-3.914.844-.972 1.98-1.46 3.405-1.46 1.25 0 2.16.36 2.73 1.079.572.718.857 1.886.857 3.498v9.255c0 .309.093.56.28.746.186.188.432.282.74.282.307 0 .548-.094.723-.282.175-.188.264-.437.264-.746v-9.387c-.002-4.157-1.768-6.236-5.299-6.236z" fill="#000"/></svg>